<svg width="80" height="80" viewBox="0 0 80 80" fill="none" xmlns="http://www.w3.org/2000/svg">
<g clip-path="url(#clip0_232_3881)">
<mask id="mask0_232_3881" style="mask-type:luminance" maskUnits="userSpaceOnUse" x="0" y="0" width="80" height="80">
<path d="M80 0H0V80H80V0Z" fill="white"/>
</mask>
<g mask="url(#mask0_232_3881)">
<path opacity="0.02" d="M80 40C80 17.9086 62.0914 0 40 0C17.9086 0 0 17.9086 0 40C0 62.0914 17.9086 80 40 80C62.0914 80 80 62.0914 80 40Z" fill="black"/>
<mask id="mask1_232_3881" style="mask-type:luminance" maskUnits="userSpaceOnUse" x="18" y="18" width="44" height="44">
<path d="M61.3334 18.6667H18.6667V61.3334H61.3334V18.6667Z" fill="white"/>
</mask>
<g mask="url(#mask1_232_3881)">
<path d="M53.3333 31.1112C51.8688 28.9191 49.8852 27.123 47.5591 25.8824C45.2329 24.6418 42.6363 23.9952 40 24C37.3683 23.9984 34.7768 24.6467 32.4559 25.8872C30.1348 27.1278 28.156 28.9222 26.6951 31.1112" stroke="#0057A3" stroke-width="2" stroke-linecap="round" stroke-linejoin="round"/>
<path d="M39.1111 24C37.7257 26.2197 36.6345 28.6101 35.865 31.1111" stroke="#0057A3" stroke-width="2" stroke-linecap="round" stroke-linejoin="round"/>
<path d="M40.8892 24C42.276 26.2196 43.3684 28.61 44.139 31.1111" stroke="#0057A3" stroke-width="2" stroke-linecap="round" stroke-linejoin="round"/>
<path d="M53.3333 48.8894C51.8688 51.0814 49.8852 52.8775 47.5591 54.1182C45.2329 55.3587 42.6363 56.0054 40 56.0005C37.3683 56.0021 34.7768 55.3539 32.4559 54.1134C30.1348 52.8729 28.156 51.0785 26.6951 48.8894" stroke="#0057A3" stroke-width="2" stroke-linecap="round" stroke-linejoin="round"/>
<path d="M39.1111 56.0005C37.7257 53.7807 36.6345 51.3903 35.865 48.8894" stroke="#0057A3" stroke-width="2" stroke-linecap="round" stroke-linejoin="round"/>
<path d="M40.8892 56.0005C42.276 53.781 43.3684 51.3906 44.139 48.8894" stroke="#0057A3" stroke-width="2" stroke-linecap="round" stroke-linejoin="round"/>
<path d="M22.2224 36.4441L24.0003 43.5552L26.6669 36.4441L29.3336 43.5552L31.1113 36.4441" stroke="#0057A3" stroke-width="2" stroke-linecap="round" stroke-linejoin="round"/>
<path d="M48.8892 36.4441L50.667 43.5552L53.3337 36.4441L56.0004 43.5552L57.7781 36.4441" stroke="#0057A3" stroke-width="2" stroke-linecap="round" stroke-linejoin="round"/>
<path d="M35.5557 36.4441L37.3335 43.5552L40.0002 36.4441L42.6669 43.5552L44.4446 36.4441" stroke="#0057A3" stroke-width="2" stroke-linecap="round" stroke-linejoin="round"/>
</g>
</g>
</g>
<defs>
<clipPath id="clip0_232_3881">
<rect width="80" height="80" fill="white"/>
</clipPath>
</defs>
</svg>
