<svg width="76" height="80" viewBox="0 0 76 80" fill="none" xmlns="http://www.w3.org/2000/svg">
<g clip-path="url(#clip0_262_5468)">
<path opacity="0.2" d="M76 40C76 17.9086 58.9868 0 38 0C17.0132 0 0 17.9086 0 40C0 62.0914 17.0132 80 38 80C58.9868 80 76 62.0914 76 40Z" fill="#0057A3"/>
<mask id="mask0_262_5468" style="mask-type:luminance" maskUnits="userSpaceOnUse" x="17" y="18" width="42" height="44">
<path d="M58.2667 18.6667H17.7334V61.3334H58.2667V18.6667Z" fill="white"/>
</mask>
<g mask="url(#mask0_262_5468)">
<path d="M22.7998 31.1121H27.8665" stroke="#2F2F2F" stroke-width="2" stroke-linecap="round" stroke-linejoin="round"/>
<path d="M22.7998 38.2214H26.1776" stroke="#2F2F2F" stroke-width="2" stroke-linecap="round" stroke-linejoin="round"/>
<path d="M32.9686 34.3138L31.9553 44.9805C31.9083 45.4747 31.9602 45.9739 32.1078 46.4458C32.2553 46.9177 32.4951 47.3517 32.8118 47.7201C33.1285 48.0883 33.5149 48.3827 33.9462 48.5842C34.3775 48.7857 34.8443 48.8898 35.3161 48.8898H48.7934C49.6311 48.8898 50.4388 48.5622 51.0599 47.9705C51.6809 47.3789 52.0709 46.5654 52.1543 45.6881L53.1676 35.0214C53.2146 34.5271 53.1627 34.0279 53.0151 33.5561C52.8677 33.0842 52.6278 32.6502 52.3111 32.2818C51.9946 31.9135 51.6081 31.6191 51.1767 31.4177C50.7454 31.2162 50.2787 31.1121 49.8068 31.1121H36.3294C35.4918 31.1121 34.684 31.4397 34.063 32.0314C33.4419 32.623 33.0519 33.4365 32.9686 34.3138Z" stroke="#2F2F2F" stroke-width="2" stroke-linecap="round" stroke-linejoin="round"/>
<path d="M34.2842 32L39.3204 37.8311C39.768 38.3495 40.3082 38.7699 40.9101 39.0684C41.512 39.3669 42.1639 39.5377 42.8286 39.5712C43.4932 39.6045 44.1576 39.4997 44.7837 39.2628C45.4099 39.0259 45.9856 38.6613 46.478 38.1903L52.0175 32.8889" stroke="#2F2F2F" stroke-width="2" stroke-linecap="round" stroke-linejoin="round"/>
</g>
</g>
<defs>
<clipPath id="clip0_262_5468">
<rect width="76" height="80" fill="white"/>
</clipPath>
</defs>
</svg>
