<svg width="80" height="80" viewBox="0 0 80 80" fill="none" xmlns="http://www.w3.org/2000/svg">
<g clip-path="url(#clip0_232_3860)">
<mask id="mask0_232_3860" style="mask-type:luminance" maskUnits="userSpaceOnUse" x="0" y="0" width="80" height="80">
<path d="M80 0H0V80H80V0Z" fill="white"/>
</mask>
<g mask="url(#mask0_232_3860)">
<path opacity="0.02" d="M80 40C80 17.9086 62.0914 0 40 0C17.9086 0 0 17.9086 0 40C0 62.0914 17.9086 80 40 80C62.0914 80 80 62.0914 80 40Z" fill="black"/>
<mask id="mask1_232_3860" style="mask-type:luminance" maskUnits="userSpaceOnUse" x="18" y="18" width="44" height="44">
<path d="M61.3332 18.6667H18.6665V61.3334H61.3332V18.6667Z" fill="white"/>
</mask>
<g mask="url(#mask1_232_3860)">
<path d="M24 56H56" stroke="#0057A3" stroke-width="2" stroke-linecap="round" stroke-linejoin="round"/>
<path d="M24 36.4441H56" stroke="#0057A3" stroke-width="2" stroke-linecap="round" stroke-linejoin="round"/>
<path d="M27.5557 29.3333L40.0002 24L52.4446 29.3333" stroke="#0057A3" stroke-width="2" stroke-linecap="round" stroke-linejoin="round"/>
<path d="M25.7778 36.4441V55.9997" stroke="#0057A3" stroke-width="2" stroke-linecap="round" stroke-linejoin="round"/>
<path d="M54.2222 36.4441V55.9997" stroke="#0057A3" stroke-width="2" stroke-linecap="round" stroke-linejoin="round"/>
<path d="M32.8892 43.5559V48.8892" stroke="#0057A3" stroke-width="2" stroke-linecap="round" stroke-linejoin="round"/>
<path d="M40 43.5559V48.8892" stroke="#0057A3" stroke-width="2" stroke-linecap="round" stroke-linejoin="round"/>
<path d="M47.1113 43.5559V48.8892" stroke="#0057A3" stroke-width="2" stroke-linecap="round" stroke-linejoin="round"/>
</g>
</g>
</g>
<defs>
<clipPath id="clip0_232_3860">
<rect width="80" height="80" fill="white"/>
</clipPath>
</defs>
</svg>
