<svg xmlns="http://www.w3.org/2000/svg" xmlns:xlink="http://www.w3.org/1999/xlink" version="1.1" width="256" height="256" viewBox="0 0 256 256" xml:space="preserve">
<g style="stroke: none; stroke-width: 0; stroke-dasharray: none; stroke-linecap: butt; stroke-linejoin: miter; stroke-miterlimit: 10; fill: none; fill-rule: nonzero; opacity: 1;" transform="translate(1.4065934065934016 1.4065934065934016) scale(2.81 2.81)">
	<path d="M 2.037 60.824 v 15.764 c 0 1.594 1.292 2.885 2.885 2.885 h 12.725 c 1.594 0 2.885 -1.292 2.885 -2.885 V 60.824 H 2.037 z" style="stroke: none; stroke-width: 1; stroke-dasharray: none; stroke-linecap: butt; stroke-linejoin: miter; stroke-miterlimit: 10; fill: rgb(47,72,89); fill-rule: nonzero; opacity: 1;" transform=" matrix(1 0 0 1 0 0) " stroke-linecap="round"/>
	<path d="M 69.467 60.824 v 15.764 c 0 1.594 1.292 2.885 2.885 2.885 h 12.725 c 1.594 0 2.885 -1.292 2.885 -2.885 V 60.824 H 69.467 z" style="stroke: none; stroke-width: 1; stroke-dasharray: none; stroke-linecap: butt; stroke-linejoin: miter; stroke-miterlimit: 10; fill: rgb(47,72,89); fill-rule: nonzero; opacity: 1;" transform=" matrix(1 0 0 1 0 0) " stroke-linecap="round"/>
	<path d="M 88.441 61.246 l 0.526 -9.521 c 0.34 -6.151 -1.894 -12.166 -6.167 -16.603 l -4.87 -5.057 l -5.753 -14.372 c -0.84 -2.098 -2.747 -3.597 -4.991 -3.862 c -14.791 -1.749 -29.581 -1.749 -44.372 0 c -2.244 0.265 -4.151 1.765 -4.991 3.862 l -5.753 14.372 l -4.87 5.057 c -4.273 4.437 -6.507 10.452 -6.167 16.603 l 0.526 9.521 c 0.268 4.843 4.273 8.633 9.123 8.633 h 68.634 C 84.168 69.879 88.173 66.089 88.441 61.246 z" style="stroke: none; stroke-width: 1; stroke-dasharray: none; stroke-linecap: butt; stroke-linejoin: miter; stroke-miterlimit: 10; fill: rgb(244,78,78); fill-rule: nonzero; opacity: 1;" transform=" matrix(1 0 0 1 0 0) " stroke-linecap="round"/>
	<ellipse cx="14.317" cy="49.337999999999994" rx="7.967" ry="6.398" style="stroke: none; stroke-width: 1; stroke-dasharray: none; stroke-linecap: butt; stroke-linejoin: miter; stroke-miterlimit: 10; fill: rgb(230,246,255); fill-rule: nonzero; opacity: 1;" transform=" matrix(0.4559 -0.89 0.89 0.4559 -36.1201 39.5829) "/>
	<ellipse cx="75.688" cy="49.336999999999996" rx="6.398" ry="7.967" style="stroke: none; stroke-width: 1; stroke-dasharray: none; stroke-linecap: butt; stroke-linejoin: miter; stroke-miterlimit: 10; fill: rgb(230,246,255); fill-rule: nonzero; opacity: 1;" transform=" matrix(0.89 -0.4559 0.4559 0.89 -14.1682 39.9305) "/>
	<path d="M 77.93 30.065 l -5.753 -14.372 c -0.84 -2.098 -2.747 -3.597 -4.991 -3.862 c -14.791 -1.749 -29.581 -1.749 -44.372 0 c -2.244 0.265 -4.151 1.765 -4.991 3.862 l -5.753 14.372 l 0 0 C 34.024 28.9 55.977 28.9 77.93 30.065 L 77.93 30.065 z" style="stroke: none; stroke-width: 1; stroke-dasharray: none; stroke-linecap: butt; stroke-linejoin: miter; stroke-miterlimit: 10; fill: rgb(47,72,89); fill-rule: nonzero; opacity: 1;" transform=" matrix(1 0 0 1 0 0) " stroke-linecap="round"/>
	<path d="M 17.648 80.475 H 4.923 c -2.143 0 -3.885 -1.743 -3.885 -3.886 V 63.703 c 0 -0.553 0.448 -1 1 -1 s 1 0.447 1 1 v 12.886 c 0 1.04 0.846 1.886 1.885 1.886 h 12.725 c 1.04 0 1.885 -0.846 1.885 -1.886 v -6.71 c 0 -0.553 0.448 -1 1 -1 c 0.552 0 1 0.447 1 1 v 6.71 C 21.533 78.731 19.791 80.475 17.648 80.475 z" style="stroke: none; stroke-width: 1; stroke-dasharray: none; stroke-linecap: butt; stroke-linejoin: miter; stroke-miterlimit: 10; fill: rgb(47,72,89); fill-rule: nonzero; opacity: 1;" transform=" matrix(1 0 0 1 0 0) " stroke-linecap="round"/>
	<path d="M 85.078 80.475 H 72.352 c -2.142 0 -3.885 -1.743 -3.885 -3.886 v -6.44 c 0 -0.553 0.447 -1 1 -1 s 1 0.447 1 1 v 6.44 c 0 1.04 0.846 1.886 1.885 1.886 h 12.726 c 1.04 0 1.886 -0.846 1.886 -1.886 V 63.692 c 0 -0.553 0.447 -1 1 -1 s 1 0.447 1 1 v 12.897 C 88.964 78.731 87.221 80.475 85.078 80.475 z" style="stroke: none; stroke-width: 1; stroke-dasharray: none; stroke-linecap: butt; stroke-linejoin: miter; stroke-miterlimit: 10; fill: rgb(47,72,89); fill-rule: nonzero; opacity: 1;" transform=" matrix(1 0 0 1 0 0) " stroke-linecap="round"/>
	<path d="M 62.988 59.107 H 27.013 c -0.552 0 -1 -0.447 -1 -1 s 0.448 -1 1 -1 h 35.975 c 0.553 0 1 0.447 1 1 S 63.541 59.107 62.988 59.107 z" style="stroke: none; stroke-width: 1; stroke-dasharray: none; stroke-linecap: butt; stroke-linejoin: miter; stroke-miterlimit: 10; fill: rgb(47,72,89); fill-rule: nonzero; opacity: 1;" transform=" matrix(1 0 0 1 0 0) " stroke-linecap="round"/>
	<path d="M 57.455 53.071 H 32.547 c -0.552 0 -1 -0.447 -1 -1 c 0 -0.553 0.448 -1 1 -1 h 24.908 c 0.553 0 1 0.447 1 1 C 58.455 52.624 58.007 53.071 57.455 53.071 z" style="stroke: none; stroke-width: 1; stroke-dasharray: none; stroke-linecap: butt; stroke-linejoin: miter; stroke-miterlimit: 10; fill: rgb(47,72,89); fill-rule: nonzero; opacity: 1;" transform=" matrix(1 0 0 1 0 0) " stroke-linecap="round"/>
	<path d="M 79.317 70.879 H 10.684 c -5.379 0 -9.825 -4.207 -10.122 -9.578 l -0.526 -9.52 c -0.354 -6.406 1.996 -12.731 6.446 -17.353 l 4.734 -4.916 l 5.68 -14.191 c 0.984 -2.459 3.207 -4.177 5.802 -4.484 c 14.8 -1.749 29.808 -1.75 44.606 0 c 2.595 0.307 4.817 2.024 5.803 4.484 l 5.679 14.191 l 4.735 4.916 c 4.45 4.622 6.8 10.947 6.444 17.353 l -0.526 9.521 C 89.143 66.672 84.696 70.879 79.317 70.879 z M 45 11.526 c -7.373 0 -14.747 0.433 -22.069 1.298 c -1.866 0.221 -3.468 1.462 -4.18 3.241 l -5.825 14.553 l -5.006 5.198 c -4.066 4.223 -6.212 10.001 -5.889 15.855 l 0.526 9.52 c 0.238 4.312 3.807 7.689 8.125 7.689 h 68.634 c 4.317 0 7.887 -3.377 8.125 -7.688 V 61.19 l 0.526 -9.521 c 0.324 -5.852 -1.822 -11.631 -5.89 -15.854 l -5.005 -5.198 l -0.073 -0.181 l -5.752 -14.372 c -0.712 -1.778 -2.314 -3.021 -4.18 -3.241 C 59.748 11.958 52.373 11.526 45 11.526 z" style="stroke: none; stroke-width: 1; stroke-dasharray: none; stroke-linecap: butt; stroke-linejoin: miter; stroke-miterlimit: 10; fill: rgb(244,78,78); fill-rule: nonzero; opacity: 1;" transform=" matrix(1 0 0 1 0 0) " stroke-linecap="round"/>
</g>
</svg>