<svg width="80" height="80" viewBox="0 0 80 80" fill="none" xmlns="http://www.w3.org/2000/svg">
<g clip-path="url(#clip0_239_4662)">
<path opacity="0.2" d="M80 40C80 17.9086 62.0914 0 40 0C17.9086 0 0 17.9086 0 40C0 62.0914 17.9086 80 40 80C62.0914 80 80 62.0914 80 40Z" fill="#0057A3"/>
<mask id="mask0_239_4662" style="mask-type:luminance" maskUnits="userSpaceOnUse" x="18" y="18" width="44" height="44">
<path d="M61.3337 18.6665H18.667V61.3332H61.3337V18.6665Z" fill="white"/>
</mask>
<g mask="url(#mask0_239_4662)">
<path d="M48.8889 54.2227H29.3333C27.9188 54.2227 26.5623 53.6609 25.5621 52.6606C24.5619 51.6605 24 50.3039 24 48.8894C24 47.475 24.5619 46.1183 25.5621 45.1182C26.5623 44.1179 27.9188 43.5561 29.3333 43.5561H48.8889C47.4744 43.5561 46.1179 44.1179 45.1176 45.1182C44.1175 46.1183 43.5556 47.475 43.5556 48.8894C43.5556 50.3039 44.1175 51.6605 45.1176 52.6606C46.1179 53.6609 47.4744 54.2227 48.8889 54.2227ZM48.8889 54.2227H50.6667C52.0812 54.2227 53.4377 53.6609 54.4379 52.6606C55.4381 51.6605 56 50.3039 56 48.8894V29.3339C56 28.3909 55.6253 27.4865 54.9587 26.8197C54.2919 26.1529 53.3875 25.7783 52.4444 25.7783H34.6667C33.7237 25.7783 32.8193 26.1529 32.1525 26.8197C31.4857 27.4865 31.1111 28.3909 31.1111 29.3339V43.5561" stroke="#2F2F2F" stroke-width="2" stroke-linecap="round" stroke-linejoin="round"/>
</g>
</g>
<defs>
<clipPath id="clip0_239_4662">
<rect width="80" height="80" fill="white"/>
</clipPath>
</defs>
</svg>
