<svg width="50" height="50" viewBox="0 0 50 50" fill="none" xmlns="http://www.w3.org/2000/svg">
<g clip-path="url(#clip0_239_4347)">
<mask id="mask0_239_4347" style="mask-type:luminance" maskUnits="userSpaceOnUse" x="0" y="0" width="50" height="50">
<path d="M50 0H0V50H50V0Z" fill="white"/>
</mask>
<g mask="url(#mask0_239_4347)">
<path d="M37.3406 17.1503C31.5322 13.9015 22.2095 8.68482 7.74932 0.588228C6.77441 -0.055621 5.65274 -0.139996 4.68359 0.188032L29.4933 24.9976L37.3406 17.1503Z" fill="#32BBFF"/>
<path d="M4.68389 0.188232C4.50224 0.249755 4.32549 0.323974 4.15645 0.413624C3.08622 0.99253 2.2998 2.1065 2.2998 3.51539V46.4802C2.2998 47.8892 3.08614 49.0032 4.15645 49.5819C4.3252 49.6715 4.50187 49.7461 4.6833 49.808L29.4934 24.9977L4.68389 0.188232Z" fill="#32BBFF"/>
<path d="M29.4938 24.9978L4.68359 49.808C5.65303 50.1384 6.77472 50.0605 7.74991 49.4072C21.7732 41.5547 30.9907 36.3999 36.8663 33.1234C37.03 33.0316 37.1903 32.9418 37.3486 32.8528L29.4938 24.9978Z" fill="#32BBFF"/>
<path d="M2.2998 24.9978V46.4803C2.2998 47.8893 3.08614 49.0032 4.15645 49.582C4.3252 49.6716 4.50187 49.7461 4.6833 49.808L29.4934 24.9978H2.2998Z" fill="#2C9FD9"/>
<path d="M7.75039 0.588665C6.59268 -0.17579 5.22743 -0.154013 4.15723 0.413956L29.1178 25.3746L37.3416 17.1507C31.5332 13.902 22.2105 8.68527 7.75039 0.588665Z" fill="#29CC5E"/>
<path d="M29.1178 24.6216L4.15723 49.582C5.22754 50.1499 6.59268 50.1826 7.75039 49.4072C21.7736 41.5547 30.9914 36.3999 36.8668 33.1235C37.0305 33.0316 37.1907 32.9418 37.3491 32.8528L29.1178 24.6216Z" fill="#D93F21"/>
<path d="M47.7 24.9984C47.7 23.808 47.0992 22.6065 45.9088 21.9403C45.9088 21.9403 43.6823 20.6981 36.8577 16.8809L28.7402 24.9984L36.8657 33.1238C43.6152 29.334 45.9086 28.0563 45.9086 28.0563C47.0992 27.3901 47.7 26.1888 47.7 24.9984Z" fill="#FFD500"/>
<path d="M45.9088 28.0559C47.0992 27.3897 47.7 26.1882 47.7 24.9978H28.7402L36.8657 33.1234C43.6154 29.3336 45.9088 28.0559 45.9088 28.0559Z" fill="#FFAA00"/>
</g>
</g>
<defs>
<clipPath id="clip0_239_4347">
<rect width="50" height="50" fill="white"/>
</clipPath>
</defs>
</svg>
