<svg width="103" height="104" viewBox="0 0 103 104" fill="none" xmlns="http://www.w3.org/2000/svg">
<path d="M10.3806 97.32C8.60996 97.32 6.96729 97.096 5.45263 96.648C3.93796 96.1787 2.65796 95.5493 1.61263 94.76L2.86063 91.528C3.90596 92.2747 5.04729 92.8507 6.28463 93.256C7.54329 93.6613 8.90863 93.864 10.3806 93.864C12.066 93.864 13.2926 93.5867 14.0606 93.032C14.8286 92.456 15.2126 91.72 15.2126 90.824C15.2126 90.0773 14.9353 89.4907 14.3806 89.064C13.8473 88.6373 12.9193 88.2853 11.5966 88.008L8.07663 87.272C4.06596 86.4187 2.06063 84.36 2.06063 81.096C2.06063 79.688 2.43396 78.4613 3.18063 77.416C3.92729 76.3707 4.96196 75.56 6.28463 74.984C7.60729 74.408 9.13263 74.12 10.8606 74.12C12.3966 74.12 13.8366 74.3547 15.1806 74.824C16.5246 75.272 17.6446 75.912 18.5406 76.744L17.2926 79.816C15.522 78.3227 13.3673 77.576 10.8286 77.576C9.35663 77.576 8.20463 77.8853 7.37263 78.504C6.54063 79.1227 6.12463 79.9333 6.12463 80.936C6.12463 81.704 6.38063 82.3227 6.89263 82.792C7.40463 83.24 8.27929 83.592 9.51663 83.848L13.0046 84.584C15.1166 85.032 16.6846 85.736 17.7086 86.696C18.754 87.656 19.2766 88.936 19.2766 90.536C19.2766 91.88 18.914 93.064 18.1886 94.088C17.4633 95.112 16.4286 95.912 15.0846 96.488C13.762 97.0427 12.194 97.32 10.3806 97.32ZM22.1521 77.992V74.088H26.6321V77.992H22.1521ZM22.4081 97V81.352H26.4081V97H22.4081ZM37.8604 103.08C36.4097 103.08 35.0444 102.909 33.7644 102.568C32.5057 102.248 31.3964 101.747 30.4364 101.064L31.5884 98.28C32.4844 98.8773 33.4444 99.3147 34.4684 99.592C35.4924 99.8907 36.5164 100.04 37.5404 100.04C40.399 100.04 41.8284 98.664 41.8284 95.912V93.768C41.3804 94.6427 40.687 95.336 39.7484 95.848C38.831 96.36 37.807 96.616 36.6764 96.616C35.2684 96.616 34.0417 96.296 32.9964 95.656C31.951 94.9947 31.1404 94.0773 30.5644 92.904C29.9884 91.7307 29.7004 90.3653 29.7004 88.808C29.7004 87.2507 29.9884 85.896 30.5644 84.744C31.1404 83.5707 31.951 82.664 32.9964 82.024C34.0417 81.3627 35.2684 81.032 36.6764 81.032C37.8497 81.032 38.895 81.2987 39.8124 81.832C40.7297 82.344 41.4017 83.0373 41.8284 83.912V81.352H45.7324V95.432C45.7324 97.9707 45.0604 99.88 43.7164 101.16C42.3724 102.44 40.4204 103.08 37.8604 103.08ZM37.7644 93.576C39.0017 93.576 39.983 93.1493 40.7084 92.296C41.4337 91.4427 41.7964 90.28 41.7964 88.808C41.7964 87.336 41.4337 86.184 40.7084 85.352C39.983 84.4987 39.0017 84.072 37.7644 84.072C36.527 84.072 35.5457 84.4987 34.8204 85.352C34.095 86.184 33.7324 87.336 33.7324 88.808C33.7324 90.28 34.095 91.4427 34.8204 92.296C35.5457 93.1493 36.527 93.576 37.7644 93.576ZM49.8769 97V81.352H53.7809V83.784C54.3142 82.888 55.0289 82.2053 55.9249 81.736C56.8422 81.2667 57.8662 81.032 58.9969 81.032C62.6875 81.032 64.5329 83.176 64.5329 87.464V97H60.5329V87.656C60.5329 86.44 60.2982 85.5547 59.8289 85C59.3809 84.4453 58.6769 84.168 57.7169 84.168C56.5435 84.168 55.6049 84.5413 54.9009 85.288C54.2182 86.0133 53.8769 86.984 53.8769 88.2V97H49.8769ZM77.6046 97V74.44H81.7006V97H77.6046ZM86.2206 97V81.352H90.1246V83.784C90.658 82.888 91.3726 82.2053 92.2686 81.736C93.186 81.2667 94.21 81.032 95.3406 81.032C99.0313 81.032 100.877 83.176 100.877 87.464V97H96.8766V87.656C96.8766 86.44 96.642 85.5547 96.1726 85C95.7246 84.4453 95.0206 84.168 94.0606 84.168C92.8873 84.168 91.9486 84.5413 91.2446 85.288C90.562 86.0133 90.2206 86.984 90.2206 88.2V97H86.2206Z" fill="#0057A3"/>
<path d="M51.9993 0C32.7004 0 17 15.7007 17 34.9993C17 43.6276 20.1444 51.5305 25.34 57.6398C25.4064 57.7422 25.4824 57.8392 25.572 57.9288C25.5923 57.9492 25.6147 57.962 25.6351 57.9804C32.0557 65.3378 41.4898 70 51.9992 70C62.5087 70 71.9425 65.3378 78.365 57.9804C78.3854 57.962 78.4084 57.9478 78.4281 57.9288C78.5177 57.8393 78.5943 57.7416 78.6601 57.6398C83.8541 51.5312 86.9994 43.6283 86.9994 34.9993C86.9994 15.7004 71.298 0 52.0001 0H51.9993ZM51.9993 66.499C43.0543 66.499 34.9743 62.7454 29.2355 56.7379L31.6331 54.3403C33.9486 52.0248 37.0273 50.7487 40.3006 50.7487H63.6983C66.9718 50.7487 70.0497 52.0241 72.3658 54.3396L74.7635 56.7372C69.024 62.7454 60.9443 66.499 51.9993 66.499ZM77.0452 54.0709L74.8397 51.8654C71.8627 48.8884 67.9055 47.2487 63.6973 47.2487H40.2996C36.0907 47.2487 32.134 48.8885 29.1572 51.8654L26.9517 54.0709C22.9069 48.7731 20.4985 42.1633 20.4985 34.9995C20.4985 17.6301 34.6287 3.49976 51.9983 3.49976C69.3678 3.49976 83.498 17.6299 83.498 34.9995C83.498 42.1636 81.0893 48.7736 77.0452 54.0709ZM51.9993 15.7492C44.2803 15.7492 37.9994 22.03 37.9994 29.7491C37.9994 37.4681 44.2803 43.749 51.9993 43.749C59.7184 43.749 65.9992 37.4681 65.9992 29.7491C65.9992 22.03 59.7184 15.7492 51.9993 15.7492ZM51.9993 40.2497C46.2096 40.2497 41.4993 35.5394 41.4993 29.7498C41.4993 23.9601 46.2096 19.2498 51.9993 19.2498C57.789 19.2498 62.4993 23.9601 62.4993 29.7498C62.4993 35.5394 57.789 40.2497 51.9993 40.2497Z" fill="#0057A3"/>
</svg>
