<svg width="99" height="114" viewBox="0 0 99 114" fill="none" xmlns="http://www.w3.org/2000/svg">
<path d="M2.91713 103V80.44H12.7091C15.1838 80.44 17.0931 81.0587 18.4371 82.296C19.7811 83.5333 20.4531 85.2613 20.4531 87.48C20.4531 89.6987 19.7811 91.4373 18.4371 92.696C17.0931 93.9333 15.1838 94.552 12.7091 94.552H7.01313V103H2.91713ZM7.01313 91.32H12.0691C15.0131 91.32 16.4851 90.04 16.4851 87.48C16.4851 84.9413 15.0131 83.672 12.0691 83.672H7.01313V91.32ZM23.0956 103V87.352H26.9996V90.104C27.7676 88.248 29.4103 87.224 31.9276 87.032L33.1436 86.936L33.3996 90.328L31.0956 90.552C28.4716 90.808 27.1596 92.152 27.1596 94.584V103H23.0956ZM42.5129 103.32C40.8915 103.32 39.4835 102.989 38.2889 102.328C37.0942 101.667 36.1662 100.728 35.5049 99.512C34.8435 98.2747 34.5129 96.824 34.5129 95.16C34.5129 93.496 34.8435 92.056 35.5049 90.84C36.1662 89.624 37.0942 88.6853 38.2889 88.024C39.4835 87.3627 40.8915 87.032 42.5129 87.032C44.1342 87.032 45.5422 87.3627 46.7369 88.024C47.9315 88.6853 48.8595 89.624 49.5209 90.84C50.1822 92.056 50.5129 93.496 50.5129 95.16C50.5129 96.824 50.1822 98.2747 49.5209 99.512C48.8595 100.728 47.9315 101.667 46.7369 102.328C45.5422 102.989 44.1342 103.32 42.5129 103.32ZM42.5129 100.28C43.7075 100.28 44.6675 99.8533 45.3929 99C46.1182 98.1253 46.4809 96.8453 46.4809 95.16C46.4809 93.4533 46.1182 92.184 45.3929 91.352C44.6675 90.4987 43.7075 90.072 42.5129 90.072C41.3182 90.072 40.3582 90.4987 39.6329 91.352C38.9075 92.184 38.5449 93.4533 38.5449 95.16C38.5449 96.8453 38.9075 98.1253 39.6329 99C40.3582 99.8533 41.3182 100.28 42.5129 100.28ZM64.8261 83.992V80.088H69.2741V83.992H64.8261ZM54.7141 103V90.36H51.7061V87.352H54.7141V87.32C54.7141 85.1013 55.2901 83.4267 56.4421 82.296C57.6155 81.1653 59.4288 80.5253 61.8821 80.376L63.2901 80.312L63.4821 83.256L62.2341 83.32C60.9541 83.4053 60.0475 83.7253 59.5141 84.28C58.9808 84.8133 58.7141 85.6133 58.7141 86.68V87.352H69.0501V103H65.0501V90.36H58.7141V103H54.7141ZM78.6606 103.32C76.8046 103.32 75.4286 102.819 74.5326 101.816C73.658 100.792 73.2206 99.2987 73.2206 97.336V80.44H77.2206V97.144C77.2206 99.064 78.0313 100.024 79.6526 100.024C79.8873 100.024 80.122 100.013 80.3566 99.992C80.5913 99.9707 80.8153 99.928 81.0286 99.864L80.9646 103.032C80.1966 103.224 79.4286 103.32 78.6606 103.32ZM90.9951 103.32C89.2245 103.32 87.6991 102.989 86.4191 102.328C85.1391 101.667 84.1471 100.728 83.4431 99.512C82.7605 98.296 82.4191 96.856 82.4191 95.192C82.4191 93.5707 82.7498 92.152 83.4111 90.936C84.0938 89.72 85.0218 88.7707 86.1951 88.088C87.3898 87.384 88.7445 87.032 90.2591 87.032C92.4778 87.032 94.2271 87.736 95.5071 89.144C96.8085 90.552 97.4591 92.472 97.4591 94.904V96.088H86.2591C86.5578 98.8827 88.1578 100.28 91.0591 100.28C91.9338 100.28 92.8085 100.152 93.6831 99.896C94.5578 99.6187 95.3578 99.192 96.0831 98.616L97.2031 101.304C96.4565 101.923 95.5178 102.413 94.3871 102.776C93.2565 103.139 92.1258 103.32 90.9951 103.32ZM90.4191 89.752C89.2458 89.752 88.2965 90.1147 87.5711 90.84C86.8458 91.5653 86.4085 92.5467 86.2591 93.784H94.1311C94.0458 92.4827 93.6831 91.4907 93.0431 90.808C92.4245 90.104 91.5498 89.752 90.4191 89.752Z" fill="white"/>
<path d="M49.9993 0C30.7004 0 15 15.7007 15 34.9993C15 43.6276 18.1444 51.5305 23.34 57.6398C23.4064 57.7422 23.4824 57.8392 23.572 57.9288C23.5923 57.9492 23.6147 57.962 23.6351 57.9804C30.0557 65.3378 39.4898 70 49.9992 70C60.5087 70 69.9425 65.3378 76.365 57.9804C76.3854 57.962 76.4084 57.9478 76.4281 57.9288C76.5177 57.8393 76.5943 57.7416 76.6601 57.6398C81.8541 51.5312 84.9994 43.6283 84.9994 34.9993C84.9994 15.7004 69.298 0 50.0001 0H49.9993ZM49.9993 66.499C41.0543 66.499 32.9743 62.7454 27.2355 56.7379L29.6331 54.3403C31.9486 52.0248 35.0273 50.7487 38.3006 50.7487H61.6983C64.9718 50.7487 68.0497 52.0241 70.3658 54.3396L72.7635 56.7372C67.024 62.7454 58.9443 66.499 49.9993 66.499ZM75.0452 54.0709L72.8397 51.8654C69.8627 48.8884 65.9055 47.2487 61.6973 47.2487H38.2996C34.0907 47.2487 30.134 48.8885 27.1572 51.8654L24.9517 54.0709C20.9069 48.7731 18.4985 42.1633 18.4985 34.9995C18.4985 17.6301 32.6287 3.49976 49.9983 3.49976C67.3678 3.49976 81.498 17.6299 81.498 34.9995C81.498 42.1636 79.0893 48.7736 75.0452 54.0709ZM49.9993 15.7492C42.2803 15.7492 35.9994 22.03 35.9994 29.7491C35.9994 37.4681 42.2803 43.749 49.9993 43.749C57.7184 43.749 63.9992 37.4681 63.9992 29.7491C63.9992 22.03 57.7184 15.7492 49.9993 15.7492ZM49.9993 40.2497C44.2096 40.2497 39.4993 35.5394 39.4993 29.7498C39.4993 23.9601 44.2096 19.2498 49.9993 19.2498C55.789 19.2498 60.4993 23.9601 60.4993 29.7498C60.4993 35.5394 55.789 40.2497 49.9993 40.2497Z" fill="white"/>
</svg>
