<svg width="197" height="105" viewBox="0 0 197 105" fill="none" xmlns="http://www.w3.org/2000/svg">
<path d="M41.9542 91.24C39.6342 91.24 37.8582 90.64 36.6262 89.44C35.4102 88.224 34.8022 86.432 34.8022 84.064V74.08H37.8742V84.04C37.8742 85.56 38.2182 86.704 38.9062 87.472C39.6102 88.224 40.6262 88.6 41.9542 88.6C44.6582 88.6 46.0102 87.08 46.0102 84.04V74.08H49.0582V84.064C49.0582 86.432 48.4582 88.224 47.2582 89.44C46.0582 90.64 44.2902 91.24 41.9542 91.24ZM56.649 91.24C55.657 91.24 54.729 91.12 53.865 90.88C53.001 90.64 52.281 90.296 51.705 89.848L52.473 87.88C53.065 88.28 53.729 88.592 54.465 88.816C55.201 89.024 55.937 89.128 56.673 89.128C57.441 89.128 58.009 89 58.377 88.744C58.761 88.472 58.953 88.12 58.953 87.688C58.953 87.016 58.457 86.584 57.465 86.392L55.065 85.936C53.033 85.552 52.017 84.496 52.017 82.768C52.017 82 52.225 81.336 52.641 80.776C53.073 80.216 53.665 79.784 54.417 79.48C55.169 79.176 56.033 79.024 57.009 79.024C57.841 79.024 58.641 79.144 59.409 79.384C60.177 79.608 60.833 79.952 61.377 80.416L60.561 82.384C60.097 82 59.537 81.696 58.881 81.472C58.241 81.248 57.625 81.136 57.033 81.136C56.249 81.136 55.665 81.272 55.281 81.544C54.913 81.816 54.729 82.176 54.729 82.624C54.729 83.328 55.185 83.76 56.097 83.92L58.497 84.376C59.537 84.568 60.321 84.92 60.849 85.432C61.393 85.944 61.665 86.632 61.665 87.496C61.665 88.664 61.209 89.584 60.297 90.256C59.385 90.912 58.169 91.24 56.649 91.24ZM69.8557 91.24C68.5277 91.24 67.3837 90.992 66.4237 90.496C65.4637 90 64.7197 89.296 64.1917 88.384C63.6797 87.472 63.4237 86.392 63.4237 85.144C63.4237 83.928 63.6717 82.864 64.1677 81.952C64.6797 81.04 65.3757 80.328 66.2557 79.816C67.1517 79.288 68.1677 79.024 69.3037 79.024C70.9677 79.024 72.2797 79.552 73.2397 80.608C74.2157 81.664 74.7037 83.104 74.7037 84.928V85.816H66.3037C66.5277 87.912 67.7277 88.96 69.9037 88.96C70.5597 88.96 71.2157 88.864 71.8717 88.672C72.5277 88.464 73.1277 88.144 73.6717 87.712L74.5117 89.728C73.9517 90.192 73.2477 90.56 72.3997 90.832C71.5517 91.104 70.7037 91.24 69.8557 91.24ZM69.4237 81.064C68.5437 81.064 67.8317 81.336 67.2877 81.88C66.7437 82.424 66.4157 83.16 66.3037 84.088H72.2077C72.1437 83.112 71.8717 82.368 71.3917 81.856C70.9277 81.328 70.2717 81.064 69.4237 81.064ZM77.0795 91V79.264H80.0075V81.328C80.5835 79.936 81.8155 79.168 83.7035 79.024L84.6155 78.952L84.8075 81.496L83.0795 81.664C81.1115 81.856 80.1275 82.864 80.1275 84.688V91H77.0795ZM92.9467 95.32V79.264H95.8747V81.136C96.2107 80.496 96.7147 79.984 97.3867 79.6C98.0747 79.216 98.8507 79.024 99.7147 79.024C100.739 79.024 101.635 79.272 102.403 79.768C103.187 80.264 103.795 80.968 104.227 81.88C104.659 82.776 104.875 83.856 104.875 85.12C104.875 86.368 104.659 87.456 104.227 88.384C103.795 89.296 103.195 90 102.427 90.496C101.659 90.992 100.755 91.24 99.7147 91.24C98.8827 91.24 98.1307 91.064 97.4587 90.712C96.8027 90.344 96.2987 89.856 95.9467 89.248V95.32H92.9467ZM98.8747 88.96C99.7707 88.96 100.491 88.64 101.035 88C101.579 87.344 101.851 86.384 101.851 85.12C101.851 83.84 101.579 82.888 101.035 82.264C100.491 81.624 99.7707 81.304 98.8747 81.304C97.9787 81.304 97.2587 81.624 96.7147 82.264C96.1707 82.888 95.8987 83.84 95.8987 85.12C95.8987 86.384 96.1707 87.344 96.7147 88C97.2587 88.64 97.9787 88.96 98.8747 88.96ZM107.337 91V79.264H110.265V81.328C110.841 79.936 112.073 79.168 113.961 79.024L114.873 78.952L115.065 81.496L113.337 81.664C111.369 81.856 110.385 82.864 110.385 84.688V91H107.337ZM121.9 91.24C120.684 91.24 119.628 90.992 118.732 90.496C117.836 90 117.14 89.296 116.644 88.384C116.148 87.456 115.9 86.368 115.9 85.12C115.9 83.872 116.148 82.792 116.644 81.88C117.14 80.968 117.836 80.264 118.732 79.768C119.628 79.272 120.684 79.024 121.9 79.024C123.116 79.024 124.172 79.272 125.068 79.768C125.964 80.264 126.66 80.968 127.156 81.88C127.652 82.792 127.9 83.872 127.9 85.12C127.9 86.368 127.652 87.456 127.156 88.384C126.66 89.296 125.964 90 125.068 90.496C124.172 90.992 123.116 91.24 121.9 91.24ZM121.9 88.96C122.796 88.96 123.516 88.64 124.06 88C124.604 87.344 124.876 86.384 124.876 85.12C124.876 83.84 124.604 82.888 124.06 82.264C123.516 81.624 122.796 81.304 121.9 81.304C121.004 81.304 120.284 81.624 119.74 82.264C119.196 82.888 118.924 83.84 118.924 85.12C118.924 86.384 119.196 87.344 119.74 88C120.284 88.64 121.004 88.96 121.9 88.96ZM138.635 76.744V73.816H141.971V76.744H138.635ZM131.051 91V81.52H128.795V79.264H131.051V79.24C131.051 77.576 131.483 76.32 132.347 75.472C133.227 74.624 134.587 74.144 136.427 74.032L137.483 73.984L137.627 76.192L136.691 76.24C135.731 76.304 135.051 76.544 134.651 76.96C134.251 77.36 134.051 77.96 134.051 78.76V79.264H141.803V91H138.803V81.52H134.051V91H131.051ZM149.011 91.24C147.619 91.24 146.587 90.864 145.915 90.112C145.259 89.344 144.931 88.224 144.931 86.752V74.08H147.931V86.608C147.931 88.048 148.539 88.768 149.755 88.768C149.931 88.768 150.107 88.76 150.283 88.744C150.459 88.728 150.627 88.696 150.787 88.648L150.739 91.024C150.163 91.168 149.587 91.24 149.011 91.24ZM158.262 91.24C156.934 91.24 155.79 90.992 154.83 90.496C153.87 90 153.126 89.296 152.598 88.384C152.086 87.472 151.83 86.392 151.83 85.144C151.83 83.928 152.078 82.864 152.574 81.952C153.086 81.04 153.782 80.328 154.662 79.816C155.558 79.288 156.574 79.024 157.71 79.024C159.374 79.024 160.686 79.552 161.646 80.608C162.622 81.664 163.11 83.104 163.11 84.928V85.816H154.71C154.934 87.912 156.134 88.96 158.31 88.96C158.966 88.96 159.622 88.864 160.278 88.672C160.934 88.464 161.534 88.144 162.078 87.712L162.918 89.728C162.358 90.192 161.654 90.56 160.806 90.832C159.958 91.104 159.11 91.24 158.262 91.24ZM157.83 81.064C156.95 81.064 156.238 81.336 155.694 81.88C155.15 82.424 154.822 83.16 154.71 84.088H160.614C160.55 83.112 160.278 82.368 159.798 81.856C159.334 81.328 158.678 81.064 157.83 81.064Z" fill="#0057A3"/>
<path d="M98.9993 0C79.7004 0 64 15.7007 64 34.9993C64 43.6276 67.1444 51.5305 72.34 57.6398C72.4064 57.7422 72.4824 57.8392 72.572 57.9288C72.5923 57.9492 72.6147 57.962 72.6351 57.9804C79.0557 65.3378 88.4898 70 98.9992 70C109.509 70 118.942 65.3378 125.365 57.9804C125.385 57.962 125.408 57.9478 125.428 57.9288C125.518 57.8393 125.594 57.7416 125.66 57.6398C130.854 51.5312 133.999 43.6283 133.999 34.9993C133.999 15.7004 118.298 0 99.0001 0H98.9993ZM98.9993 66.499C90.0543 66.499 81.9743 62.7454 76.2355 56.7379L78.6331 54.3403C80.9486 52.0248 84.0273 50.7487 87.3006 50.7487H110.698C113.972 50.7487 117.05 52.0241 119.366 54.3396L121.763 56.7372C116.024 62.7454 107.944 66.499 98.9993 66.499ZM124.045 54.0709L121.84 51.8654C118.863 48.8884 114.905 47.2487 110.697 47.2487H87.2996C83.0907 47.2487 79.134 48.8885 76.1572 51.8654L73.9517 54.0709C69.9069 48.7731 67.4985 42.1633 67.4985 34.9995C67.4985 17.6301 81.6287 3.49976 98.9983 3.49976C116.368 3.49976 130.498 17.6299 130.498 34.9995C130.498 42.1636 128.089 48.7736 124.045 54.0709ZM98.9993 15.7492C91.2803 15.7492 84.9994 22.03 84.9994 29.7491C84.9994 37.4681 91.2803 43.749 98.9993 43.749C106.718 43.749 112.999 37.4681 112.999 29.7491C112.999 22.03 106.718 15.7492 98.9993 15.7492ZM98.9993 40.2497C93.2096 40.2497 88.4993 35.5394 88.4993 29.7498C88.4993 23.9601 93.2096 19.2498 98.9993 19.2498C104.789 19.2498 109.499 23.9601 109.499 29.7498C109.499 35.5394 104.789 40.2497 98.9993 40.2497Z" fill="#0057A3"/>
</svg>
