<svg width="80" height="80" viewBox="0 0 80 80" fill="none" xmlns="http://www.w3.org/2000/svg">
<path opacity="0.2" d="M80 40C80 17.9086 62.0914 0 40 0C17.9086 0 0 17.9086 0 40C0 62.0914 17.9086 80 40 80C62.0914 80 80 62.0914 80 40Z" fill="#0057A3"/>
<mask id="mask0_239_4627" style="mask-type:luminance" maskUnits="userSpaceOnUse" x="18" y="18" width="44" height="44">
<path d="M61.3337 18.6667H18.667V61.3334H61.3337V18.6667Z" fill="white"/>
</mask>
<g mask="url(#mask0_239_4627)">
<path d="M24 40C24 42.1012 24.4139 44.1817 25.2179 46.1229C26.022 48.0641 27.2005 49.828 28.6863 51.3137C30.172 52.7995 31.9359 53.978 33.8771 54.7821C35.8183 55.5861 37.8988 56 40 56C42.1012 56 44.1817 55.5861 46.1229 54.7821C48.0641 53.978 49.828 52.7995 51.3137 51.3137C52.7995 49.828 53.978 48.0641 54.7821 46.1229C55.5861 44.1817 56 42.1012 56 40C56 37.8988 55.5861 35.8183 54.7821 33.8771C53.978 31.9359 52.7995 30.172 51.3137 28.6863C49.828 27.2005 48.0641 26.022 46.1229 25.2179C44.1817 24.4139 42.1012 24 40 24C37.8988 24 35.8183 24.4139 33.8771 25.2179C31.9359 26.022 30.172 27.2005 28.6863 28.6863C27.2005 30.172 26.022 31.9359 25.2179 33.8771C24.4139 35.8183 24 37.8988 24 40Z" stroke="#2F2F2F" stroke-width="2" stroke-linecap="round" stroke-linejoin="round"/>
<path d="M40 40H46.2223" stroke="#2F2F2F" stroke-width="2" stroke-linecap="round" stroke-linejoin="round"/>
<path d="M40 31.1121V40.001" stroke="#2F2F2F" stroke-width="2" stroke-linecap="round" stroke-linejoin="round"/>
</g>
</svg>
