<svg width="80" height="80" viewBox="0 0 80 80" fill="none" xmlns="http://www.w3.org/2000/svg">
<g clip-path="url(#clip0_262_5578)">
<path opacity="0.2" d="M80 40C80 17.9086 62.0914 0 40 0C17.9086 0 0 17.9086 0 40C0 62.0914 17.9086 80 40 80C62.0914 80 80 62.0914 80 40Z" fill="#0057A3"/>
<mask id="mask0_262_5578" style="mask-type:luminance" maskUnits="userSpaceOnUse" x="18" y="18" width="44" height="44">
<path d="M61.3337 18.6665H18.667V61.3332H61.3337V18.6665Z" fill="white"/>
</mask>
<g mask="url(#mask0_262_5578)">
<path d="M27.5576 31.1111C27.5576 32.9971 28.3068 34.8059 29.6404 36.1395C30.974 37.4731 32.7827 38.2223 34.6687 38.2223C36.5547 38.2223 38.3633 37.4731 39.6969 36.1395C41.0305 34.8059 41.7798 32.9971 41.7798 31.1111C41.7798 29.2251 41.0305 27.4164 39.6969 26.0828C38.3633 24.7492 36.5547 24 34.6687 24C32.7827 24 30.974 24.7492 29.6404 26.0828C28.3068 27.4164 27.5576 29.2251 27.5576 31.1111Z" stroke="#2F2F2F" stroke-width="2" stroke-linecap="round" stroke-linejoin="round"/>
<path d="M24 56.0002V52.4446C24 50.5586 24.7492 48.7499 26.0828 47.4163C27.4164 46.0827 29.2251 45.3335 31.1111 45.3335H38.2223C40.1083 45.3335 41.9169 46.0827 43.2505 47.4163C44.5841 48.7499 45.3333 50.5586 45.3333 52.4446V56.0002" stroke="#2F2F2F" stroke-width="2" stroke-linecap="round" stroke-linejoin="round"/>
<path d="M47.1094 24.2319C48.6391 24.6237 49.9948 25.5133 50.963 26.7605C51.9312 28.0078 52.4567 29.5419 52.4567 31.1209C52.4567 32.6998 51.9312 34.2339 50.963 35.4811C49.9948 36.7285 48.6391 37.6181 47.1094 38.0098" stroke="#2F2F2F" stroke-width="2" stroke-linecap="round" stroke-linejoin="round"/>
<path d="M56.0003 55.9991V52.4437C55.9913 50.8741 55.4633 49.3517 54.4986 48.1137C53.5339 46.8757 52.1867 45.9915 50.667 45.5991" stroke="#2F2F2F" stroke-width="2" stroke-linecap="round" stroke-linejoin="round"/>
</g>
</g>
<defs>
<clipPath id="clip0_262_5578">
<rect width="80" height="80" fill="white"/>
</clipPath>
</defs>
</svg>
