<svg width="355" height="159" viewBox="0 0 355 159" fill="none" xmlns="http://www.w3.org/2000/svg">
<g filter="url(#filter0_i_3_12)">
<path d="M90.8071 81.3734C90.8071 88.2131 89.7238 94.4369 87.5572 100.045C85.3906 105.652 82.3318 110.453 78.3809 114.446C74.43 118.44 69.6719 121.541 64.1067 123.75C58.5839 125.917 52.4664 127 45.7541 127H11.6615V35.6831H45.7541C52.4664 35.6831 58.5839 36.7876 64.1067 38.9967C69.6719 41.1634 74.43 44.2646 78.3809 48.3005C82.3318 52.2939 85.3906 57.0944 87.5572 62.7022C89.7238 68.3099 90.8071 74.5337 90.8071 81.3734ZM78.126 81.3734C78.126 75.7657 77.3613 70.7527 75.8319 66.3345C74.3025 61.9162 72.1359 58.1777 69.3321 55.119C66.5282 52.0602 63.1296 49.7237 59.1362 48.1093C55.1428 46.495 50.6821 45.6878 45.7541 45.6878H24.0241V116.995H45.7541C50.6821 116.995 55.1428 116.188 59.1362 114.574C63.1296 112.959 66.5282 110.644 69.3321 107.628C72.1359 104.569 74.3025 100.831 75.8319 96.4123C77.3613 91.9941 78.126 86.9811 78.126 81.3734Z" fill="white"/>
</g>
<g filter="url(#filter1_i_3_12)">
<path d="M183.12 79.704C186.704 79.704 189.861 79.2773 192.592 78.424C195.365 77.528 197.669 76.2907 199.504 74.712C201.381 73.0907 202.789 71.1707 203.728 68.952C204.667 66.7333 205.136 64.28 205.136 61.592C205.136 56.1307 203.344 52.0133 199.76 49.24C196.176 46.4667 190.8 45.08 183.632 45.08H170.064V79.704H183.12ZM225.488 127H214.48C212.219 127 210.555 126.125 209.488 124.376L185.68 91.608C184.955 90.584 184.165 89.8587 183.312 89.432C182.501 88.9627 181.221 88.728 179.472 88.728H170.064V127H157.712V35.288H183.632C189.435 35.288 194.448 35.8853 198.672 37.08C202.896 38.232 206.373 39.9173 209.104 42.136C211.877 44.3547 213.925 47.0427 215.248 50.2C216.571 53.3147 217.232 56.8133 217.232 60.696C217.232 63.9387 216.72 66.968 215.696 69.784C214.672 72.6 213.179 75.1387 211.216 77.4C209.296 79.6187 206.928 81.5173 204.112 83.096C201.339 84.6747 198.181 85.8693 194.64 86.68C196.219 87.576 197.584 88.8773 198.736 90.584L225.488 127Z" fill="white"/>
</g>
<g filter="url(#filter2_i_3_12)">
<path d="M170.016 36.288V128H157.6V86.272H108.128V128H95.712V36.288H108.128V77.184H157.6V36.288H170.016Z" fill="white"/>
</g>
<g filter="url(#filter3_i_3_12)">
<path d="M343.128 128H330.712V36.288H343.128V128Z" fill="white"/>
</g>
<g filter="url(#filter4_i_3_12)">
<path d="M242.128 127H229.712V35.288H242.128V127Z" fill="white"/>
</g>
<g filter="url(#filter5_i_3_12)">
<path d="M320.728 45.72H291.032V127H278.68V45.72H248.92V35.288H320.728V45.72Z" fill="white"/>
</g>
<path d="M39.901 137.425V143.938H47.558V145.992H39.901V154H37.379V135.371H48.858V137.425H39.901ZM56.8177 148.072C55.7517 148.107 54.8417 148.193 54.0877 148.332C53.3423 148.462 52.7313 148.635 52.2547 148.852C51.7867 149.069 51.4443 149.324 51.2277 149.619C51.0197 149.914 50.9157 150.243 50.9157 150.607C50.9157 150.954 50.972 151.253 51.0847 151.504C51.1973 151.755 51.349 151.963 51.5397 152.128C51.739 152.284 51.9687 152.401 52.2287 152.479C52.4973 152.548 52.7833 152.583 53.0867 152.583C53.494 152.583 53.8667 152.544 54.2047 152.466C54.5427 152.379 54.859 152.258 55.1537 152.102C55.457 151.946 55.743 151.76 56.0117 151.543C56.289 151.326 56.5577 151.079 56.8177 150.802V148.072ZM49.3427 142.69C50.0707 141.988 50.855 141.464 51.6957 141.117C52.5363 140.77 53.468 140.597 54.4907 140.597C55.2273 140.597 55.8817 140.718 56.4537 140.961C57.0257 141.204 57.5067 141.542 57.8967 141.975C58.2867 142.408 58.5813 142.933 58.7807 143.548C58.98 144.163 59.0797 144.839 59.0797 145.576V154H58.0527C57.8273 154 57.654 153.965 57.5327 153.896C57.4113 153.818 57.316 153.671 57.2467 153.454L56.9867 152.206C56.64 152.527 56.302 152.813 55.9727 153.064C55.6433 153.307 55.2967 153.515 54.9327 153.688C54.5687 153.853 54.1787 153.978 53.7627 154.065C53.3553 154.16 52.9003 154.208 52.3977 154.208C51.8863 154.208 51.4053 154.139 50.9547 154C50.504 153.853 50.1097 153.636 49.7717 153.35C49.4423 153.064 49.178 152.704 48.9787 152.271C48.788 151.829 48.6927 151.309 48.6927 150.711C48.6927 150.191 48.8357 149.693 49.1217 149.216C49.4077 148.731 49.8713 148.302 50.5127 147.929C51.154 147.556 51.9903 147.253 53.0217 147.019C54.053 146.776 55.3183 146.638 56.8177 146.603V145.576C56.8177 144.553 56.5967 143.782 56.1547 143.262C55.7127 142.733 55.067 142.469 54.2177 142.469C53.6457 142.469 53.1647 142.543 52.7747 142.69C52.3933 142.829 52.0597 142.989 51.7737 143.171C51.4963 143.344 51.2537 143.505 51.0457 143.652C50.8463 143.791 50.647 143.86 50.4477 143.86C50.2917 143.86 50.1573 143.821 50.0447 143.743C49.932 143.656 49.8367 143.552 49.7587 143.431L49.3427 142.69ZM70.2745 143.002C70.1705 143.193 70.0102 143.288 69.7935 143.288C69.6635 143.288 69.5162 143.24 69.3515 143.145C69.1868 143.05 68.9832 142.946 68.7405 142.833C68.5065 142.712 68.2248 142.603 67.8955 142.508C67.5662 142.404 67.1762 142.352 66.7255 142.352C66.3355 142.352 65.9845 142.404 65.6725 142.508C65.3605 142.603 65.0918 142.738 64.8665 142.911C64.6498 143.084 64.4808 143.288 64.3595 143.522C64.2468 143.747 64.1905 143.994 64.1905 144.263C64.1905 144.601 64.2858 144.883 64.4765 145.108C64.6758 145.333 64.9358 145.528 65.2565 145.693C65.5772 145.858 65.9412 146.005 66.3485 146.135C66.7558 146.256 67.1718 146.391 67.5965 146.538C68.0298 146.677 68.4502 146.833 68.8575 147.006C69.2648 147.179 69.6288 147.396 69.9495 147.656C70.2702 147.916 70.5258 148.237 70.7165 148.618C70.9158 148.991 71.0155 149.441 71.0155 149.97C71.0155 150.577 70.9072 151.14 70.6905 151.66C70.4738 152.171 70.1532 152.618 69.7285 152.999C69.3038 153.372 68.7838 153.666 68.1685 153.883C67.5532 154.1 66.8425 154.208 66.0365 154.208C65.1178 154.208 64.2858 154.061 63.5405 153.766C62.7952 153.463 62.1625 153.077 61.6425 152.609L62.1885 151.725C62.2578 151.612 62.3402 151.526 62.4355 151.465C62.5308 151.404 62.6522 151.374 62.7995 151.374C62.9555 151.374 63.1202 151.435 63.2935 151.556C63.4668 151.677 63.6748 151.812 63.9175 151.959C64.1688 152.106 64.4722 152.241 64.8275 152.362C65.1828 152.483 65.6248 152.544 66.1535 152.544C66.6042 152.544 66.9985 152.488 67.3365 152.375C67.6745 152.254 67.9562 152.093 68.1815 151.894C68.4068 151.695 68.5715 151.465 68.6755 151.205C68.7882 150.945 68.8445 150.668 68.8445 150.373C68.8445 150.009 68.7448 149.71 68.5455 149.476C68.3548 149.233 68.0992 149.03 67.7785 148.865C67.4578 148.692 67.0895 148.544 66.6735 148.423C66.2662 148.293 65.8458 148.159 65.4125 148.02C64.9878 147.881 64.5675 147.725 64.1515 147.552C63.7442 147.37 63.3802 147.145 63.0595 146.876C62.7388 146.607 62.4788 146.278 62.2795 145.888C62.0888 145.489 61.9935 145.008 61.9935 144.445C61.9935 143.942 62.0975 143.461 62.3055 143.002C62.5135 142.534 62.8168 142.127 63.2155 141.78C63.6142 141.425 64.1038 141.143 64.6845 140.935C65.2652 140.727 65.9282 140.623 66.6735 140.623C67.5402 140.623 68.3158 140.762 69.0005 141.039C69.6938 141.308 70.2918 141.68 70.7945 142.157L70.2745 143.002ZM77.8955 154.208C76.8555 154.208 76.0539 153.918 75.4905 153.337C74.9359 152.756 74.6585 151.92 74.6585 150.828V142.768H73.0725C72.9339 142.768 72.8169 142.729 72.7215 142.651C72.6262 142.564 72.5785 142.434 72.5785 142.261V141.338L74.7365 141.065L75.2695 136.996C75.2955 136.866 75.3519 136.762 75.4385 136.684C75.5339 136.597 75.6552 136.554 75.8025 136.554H76.9725V141.091H80.7815V142.768H76.9725V150.672C76.9725 151.227 77.1069 151.638 77.3755 151.907C77.6442 152.176 77.9909 152.31 78.4155 152.31C78.6582 152.31 78.8662 152.28 79.0395 152.219C79.2215 152.15 79.3775 152.076 79.5075 151.998C79.6375 151.92 79.7459 151.851 79.8325 151.79C79.9279 151.721 80.0102 151.686 80.0795 151.686C80.2009 151.686 80.3092 151.76 80.4045 151.907L81.0805 153.012C80.6819 153.385 80.2009 153.679 79.6375 153.896C79.0742 154.104 78.4935 154.208 77.8955 154.208ZM96.9602 148.072C95.8942 148.107 94.9842 148.193 94.2302 148.332C93.4849 148.462 92.8739 148.635 92.3972 148.852C91.9292 149.069 91.5869 149.324 91.3702 149.619C91.1622 149.914 91.0582 150.243 91.0582 150.607C91.0582 150.954 91.1146 151.253 91.2272 151.504C91.3399 151.755 91.4916 151.963 91.6822 152.128C91.8816 152.284 92.1112 152.401 92.3712 152.479C92.6399 152.548 92.9259 152.583 93.2292 152.583C93.6366 152.583 94.0092 152.544 94.3472 152.466C94.6852 152.379 95.0016 152.258 95.2962 152.102C95.5996 151.946 95.8856 151.76 96.1542 151.543C96.4316 151.326 96.7002 151.079 96.9602 150.802V148.072ZM89.4852 142.69C90.2132 141.988 90.9976 141.464 91.8382 141.117C92.6789 140.77 93.6106 140.597 94.6332 140.597C95.3699 140.597 96.0242 140.718 96.5962 140.961C97.1682 141.204 97.6492 141.542 98.0392 141.975C98.4292 142.408 98.7239 142.933 98.9232 143.548C99.1226 144.163 99.2222 144.839 99.2222 145.576V154H98.1952C97.9699 154 97.7966 153.965 97.6752 153.896C97.5539 153.818 97.4586 153.671 97.3892 153.454L97.1292 152.206C96.7826 152.527 96.4446 152.813 96.1152 153.064C95.7859 153.307 95.4392 153.515 95.0752 153.688C94.7112 153.853 94.3212 153.978 93.9052 154.065C93.4979 154.16 93.0429 154.208 92.5402 154.208C92.0289 154.208 91.5479 154.139 91.0972 154C90.6466 153.853 90.2522 153.636 89.9142 153.35C89.5849 153.064 89.3206 152.704 89.1212 152.271C88.9306 151.829 88.8352 151.309 88.8352 150.711C88.8352 150.191 88.9782 149.693 89.2642 149.216C89.5502 148.731 90.0139 148.302 90.6552 147.929C91.2966 147.556 92.1329 147.253 93.1642 147.019C94.1956 146.776 95.4609 146.638 96.9602 146.603V145.576C96.9602 144.553 96.7392 143.782 96.2972 143.262C95.8552 142.733 95.2096 142.469 94.3602 142.469C93.7882 142.469 93.3072 142.543 92.9172 142.69C92.5359 142.829 92.2022 142.989 91.9162 143.171C91.6389 143.344 91.3962 143.505 91.1882 143.652C90.9889 143.791 90.7896 143.86 90.5902 143.86C90.4342 143.86 90.2999 143.821 90.1872 143.743C90.0746 143.656 89.9792 143.552 89.9012 143.431L89.4852 142.69ZM105.074 150.828C105.499 151.4 105.962 151.803 106.465 152.037C106.968 152.271 107.531 152.388 108.155 152.388C109.386 152.388 110.33 151.95 110.989 151.075C111.648 150.2 111.977 148.952 111.977 147.331C111.977 146.473 111.899 145.736 111.743 145.121C111.596 144.506 111.379 144.003 111.093 143.613C110.807 143.214 110.456 142.924 110.04 142.742C109.624 142.56 109.152 142.469 108.623 142.469C107.869 142.469 107.206 142.642 106.634 142.989C106.071 143.336 105.551 143.825 105.074 144.458V150.828ZM104.957 142.872C105.512 142.187 106.153 141.637 106.881 141.221C107.609 140.805 108.441 140.597 109.377 140.597C110.14 140.597 110.829 140.744 111.444 141.039C112.059 141.325 112.584 141.754 113.017 142.326C113.45 142.889 113.784 143.591 114.018 144.432C114.252 145.273 114.369 146.239 114.369 147.331C114.369 148.302 114.239 149.207 113.979 150.048C113.719 150.88 113.342 151.604 112.848 152.219C112.363 152.826 111.765 153.307 111.054 153.662C110.352 154.009 109.559 154.182 108.675 154.182C107.869 154.182 107.176 154.048 106.595 153.779C106.023 153.502 105.516 153.12 105.074 152.635V158.459H102.747V140.831H104.138C104.467 140.831 104.671 140.991 104.749 141.312L104.957 142.872ZM119.648 150.828C120.073 151.4 120.537 151.803 121.039 152.037C121.542 152.271 122.105 152.388 122.729 152.388C123.96 152.388 124.905 151.95 125.563 151.075C126.222 150.2 126.551 148.952 126.551 147.331C126.551 146.473 126.473 145.736 126.317 145.121C126.17 144.506 125.953 144.003 125.667 143.613C125.381 143.214 125.03 142.924 124.614 142.742C124.198 142.56 123.726 142.469 123.197 142.469C122.443 142.469 121.78 142.642 121.208 142.989C120.645 143.336 120.125 143.825 119.648 144.458V150.828ZM119.531 142.872C120.086 142.187 120.727 141.637 121.455 141.221C122.183 140.805 123.015 140.597 123.951 140.597C124.714 140.597 125.403 140.744 126.018 141.039C126.634 141.325 127.158 141.754 127.591 142.326C128.025 142.889 128.358 143.591 128.592 144.432C128.826 145.273 128.943 146.239 128.943 147.331C128.943 148.302 128.813 149.207 128.553 150.048C128.293 150.88 127.916 151.604 127.422 152.219C126.937 152.826 126.339 153.307 125.628 153.662C124.926 154.009 124.133 154.182 123.249 154.182C122.443 154.182 121.75 154.048 121.169 153.779C120.597 153.502 120.09 153.12 119.648 152.635V158.459H117.321V140.831H118.712C119.042 140.831 119.245 140.991 119.323 141.312L119.531 142.872ZM134.093 143.47C134.509 142.569 135.02 141.867 135.627 141.364C136.233 140.853 136.974 140.597 137.85 140.597C138.127 140.597 138.391 140.627 138.643 140.688C138.903 140.749 139.132 140.844 139.332 140.974L139.163 142.703C139.111 142.92 138.981 143.028 138.773 143.028C138.651 143.028 138.474 143.002 138.24 142.95C138.006 142.898 137.741 142.872 137.447 142.872C137.031 142.872 136.658 142.933 136.329 143.054C136.008 143.175 135.718 143.357 135.458 143.6C135.206 143.834 134.977 144.129 134.769 144.484C134.569 144.831 134.387 145.229 134.223 145.68V154H131.896V140.831H133.222C133.473 140.831 133.646 140.879 133.742 140.974C133.837 141.069 133.902 141.234 133.937 141.468L134.093 143.47ZM146.384 140.623C147.346 140.623 148.213 140.783 148.984 141.104C149.755 141.425 150.414 141.88 150.96 142.469C151.506 143.058 151.922 143.773 152.208 144.614C152.503 145.446 152.65 146.378 152.65 147.409C152.65 148.449 152.503 149.385 152.208 150.217C151.922 151.049 151.506 151.76 150.96 152.349C150.414 152.938 149.755 153.393 148.984 153.714C148.213 154.026 147.346 154.182 146.384 154.182C145.413 154.182 144.538 154.026 143.758 153.714C142.987 153.393 142.328 152.938 141.782 152.349C141.236 151.76 140.816 151.049 140.521 150.217C140.235 149.385 140.092 148.449 140.092 147.409C140.092 146.378 140.235 145.446 140.521 144.614C140.816 143.773 141.236 143.058 141.782 142.469C142.328 141.88 142.987 141.425 143.758 141.104C144.538 140.783 145.413 140.623 146.384 140.623ZM146.384 152.375C147.684 152.375 148.655 151.942 149.296 151.075C149.937 150.2 150.258 148.982 150.258 147.422C150.258 145.853 149.937 144.631 149.296 143.756C148.655 142.881 147.684 142.443 146.384 142.443C145.725 142.443 145.149 142.556 144.655 142.781C144.17 143.006 143.762 143.331 143.433 143.756C143.112 144.181 142.87 144.705 142.705 145.329C142.549 145.944 142.471 146.642 142.471 147.422C142.471 148.982 142.792 150.2 143.433 151.075C144.083 151.942 145.067 152.375 146.384 152.375ZM166.513 140.831L161.144 154H159.064L153.695 140.831H155.58C155.771 140.831 155.927 140.879 156.048 140.974C156.17 141.069 156.252 141.182 156.295 141.312L159.636 149.788C159.74 150.109 159.831 150.421 159.909 150.724C159.987 151.027 160.061 151.331 160.13 151.634C160.2 151.331 160.273 151.027 160.351 150.724C160.429 150.421 160.525 150.109 160.637 149.788L164.017 141.312C164.069 141.173 164.156 141.061 164.277 140.974C164.399 140.879 164.542 140.831 164.706 140.831H166.513ZM175.493 148.072C174.427 148.107 173.517 148.193 172.763 148.332C172.018 148.462 171.407 148.635 170.93 148.852C170.462 149.069 170.12 149.324 169.903 149.619C169.695 149.914 169.591 150.243 169.591 150.607C169.591 150.954 169.648 151.253 169.76 151.504C169.873 151.755 170.025 151.963 170.215 152.128C170.415 152.284 170.644 152.401 170.904 152.479C171.173 152.548 171.459 152.583 171.762 152.583C172.17 152.583 172.542 152.544 172.88 152.466C173.218 152.379 173.535 152.258 173.829 152.102C174.133 151.946 174.419 151.76 174.687 151.543C174.965 151.326 175.233 151.079 175.493 150.802V148.072ZM168.018 142.69C168.746 141.988 169.531 141.464 170.371 141.117C171.212 140.77 172.144 140.597 173.166 140.597C173.903 140.597 174.557 140.718 175.129 140.961C175.701 141.204 176.182 141.542 176.572 141.975C176.962 142.408 177.257 142.933 177.456 143.548C177.656 144.163 177.755 144.839 177.755 145.576V154H176.728C176.503 154 176.33 153.965 176.208 153.896C176.087 153.818 175.992 153.671 175.922 153.454L175.662 152.206C175.316 152.527 174.978 152.813 174.648 153.064C174.319 153.307 173.972 153.515 173.608 153.688C173.244 153.853 172.854 153.978 172.438 154.065C172.031 154.16 171.576 154.208 171.073 154.208C170.562 154.208 170.081 154.139 169.63 154C169.18 153.853 168.785 153.636 168.447 153.35C168.118 153.064 167.854 152.704 167.654 152.271C167.464 151.829 167.368 151.309 167.368 150.711C167.368 150.191 167.511 149.693 167.797 149.216C168.083 148.731 168.547 148.302 169.188 147.929C169.83 147.556 170.666 147.253 171.697 147.019C172.729 146.776 173.994 146.638 175.493 146.603V145.576C175.493 144.553 175.272 143.782 174.83 143.262C174.388 142.733 173.743 142.469 172.893 142.469C172.321 142.469 171.84 142.543 171.45 142.69C171.069 142.829 170.735 142.989 170.449 143.171C170.172 143.344 169.929 143.505 169.721 143.652C169.522 143.791 169.323 143.86 169.123 143.86C168.967 143.86 168.833 143.821 168.72 143.743C168.608 143.656 168.512 143.552 168.434 143.431L168.018 142.69ZM183.672 134.851V154H181.358V134.851H183.672ZM187.282 157.146C187.212 157.085 187.165 157.029 187.139 156.977C187.113 156.925 187.1 156.86 187.1 156.782C187.1 156.721 187.117 156.661 187.152 156.6C187.195 156.539 187.243 156.483 187.295 156.431C187.381 156.336 187.49 156.21 187.62 156.054C187.758 155.898 187.897 155.712 188.036 155.495C188.174 155.287 188.3 155.053 188.413 154.793C188.534 154.542 188.621 154.273 188.673 153.987C188.647 153.996 188.616 154 188.582 154C188.556 154 188.53 154 188.504 154C188.053 154 187.685 153.853 187.399 153.558C187.121 153.255 186.983 152.869 186.983 152.401C186.983 151.994 187.121 151.647 187.399 151.361C187.685 151.075 188.062 150.932 188.53 150.932C188.79 150.932 189.019 150.98 189.219 151.075C189.418 151.17 189.583 151.305 189.713 151.478C189.851 151.643 189.955 151.838 190.025 152.063C190.094 152.28 190.129 152.518 190.129 152.778C190.129 153.168 190.072 153.575 189.96 154C189.856 154.416 189.695 154.828 189.479 155.235C189.271 155.651 189.015 156.054 188.712 156.444C188.408 156.834 188.062 157.194 187.672 157.523L187.282 157.146ZM203.036 154H200.514V135.371H203.036V154ZM209.236 142.742C209.522 142.421 209.825 142.131 210.146 141.871C210.466 141.611 210.804 141.39 211.16 141.208C211.524 141.017 211.905 140.874 212.304 140.779C212.711 140.675 213.149 140.623 213.617 140.623C214.336 140.623 214.969 140.744 215.515 140.987C216.069 141.221 216.529 141.559 216.893 142.001C217.265 142.434 217.547 142.959 217.738 143.574C217.928 144.189 218.024 144.87 218.024 145.615V154H215.697V145.615C215.697 144.618 215.467 143.847 215.008 143.301C214.557 142.746 213.868 142.469 212.941 142.469C212.256 142.469 211.615 142.634 211.017 142.963C210.427 143.292 209.881 143.739 209.379 144.302V154H207.052V140.831H208.443C208.772 140.831 208.976 140.991 209.054 141.312L209.236 142.742ZM229.22 143.002C229.116 143.193 228.955 143.288 228.739 143.288C228.609 143.288 228.461 143.24 228.297 143.145C228.132 143.05 227.928 142.946 227.686 142.833C227.452 142.712 227.17 142.603 226.841 142.508C226.511 142.404 226.121 142.352 225.671 142.352C225.281 142.352 224.93 142.404 224.618 142.508C224.306 142.603 224.037 142.738 223.812 142.911C223.595 143.084 223.426 143.288 223.305 143.522C223.192 143.747 223.136 143.994 223.136 144.263C223.136 144.601 223.231 144.883 223.422 145.108C223.621 145.333 223.881 145.528 224.202 145.693C224.522 145.858 224.886 146.005 225.294 146.135C225.701 146.256 226.117 146.391 226.542 146.538C226.975 146.677 227.395 146.833 227.803 147.006C228.21 147.179 228.574 147.396 228.895 147.656C229.215 147.916 229.471 148.237 229.662 148.618C229.861 148.991 229.961 149.441 229.961 149.97C229.961 150.577 229.852 151.14 229.636 151.66C229.419 152.171 229.098 152.618 228.674 152.999C228.249 153.372 227.729 153.666 227.114 153.883C226.498 154.1 225.788 154.208 224.982 154.208C224.063 154.208 223.231 154.061 222.486 153.766C221.74 153.463 221.108 153.077 220.588 152.609L221.134 151.725C221.203 151.612 221.285 151.526 221.381 151.465C221.476 151.404 221.597 151.374 221.745 151.374C221.901 151.374 222.065 151.435 222.239 151.556C222.412 151.677 222.62 151.812 222.863 151.959C223.114 152.106 223.417 152.241 223.773 152.362C224.128 152.483 224.57 152.544 225.099 152.544C225.549 152.544 225.944 152.488 226.282 152.375C226.62 152.254 226.901 152.093 227.127 151.894C227.352 151.695 227.517 151.465 227.621 151.205C227.733 150.945 227.79 150.668 227.79 150.373C227.79 150.009 227.69 149.71 227.491 149.476C227.3 149.233 227.044 149.03 226.724 148.865C226.403 148.692 226.035 148.544 225.619 148.423C225.211 148.293 224.791 148.159 224.358 148.02C223.933 147.881 223.513 147.725 223.097 147.552C222.689 147.37 222.325 147.145 222.005 146.876C221.684 146.607 221.424 146.278 221.225 145.888C221.034 145.489 220.939 145.008 220.939 144.445C220.939 143.942 221.043 143.461 221.251 143.002C221.459 142.534 221.762 142.127 222.161 141.78C222.559 141.425 223.049 141.143 223.63 140.935C224.21 140.727 224.873 140.623 225.619 140.623C226.485 140.623 227.261 140.762 227.946 141.039C228.639 141.308 229.237 141.68 229.74 142.157L229.22 143.002ZM236.841 154.208C235.801 154.208 234.999 153.918 234.436 153.337C233.881 152.756 233.604 151.92 233.604 150.828V142.768H232.018C231.879 142.768 231.762 142.729 231.667 142.651C231.572 142.564 231.524 142.434 231.524 142.261V141.338L233.682 141.065L234.215 136.996C234.241 136.866 234.297 136.762 234.384 136.684C234.479 136.597 234.601 136.554 234.748 136.554H235.918V141.091H239.727V142.768H235.918V150.672C235.918 151.227 236.052 151.638 236.321 151.907C236.59 152.176 236.936 152.31 237.361 152.31C237.604 152.31 237.812 152.28 237.985 152.219C238.167 152.15 238.323 152.076 238.453 151.998C238.583 151.92 238.691 151.851 238.778 151.79C238.873 151.721 238.956 151.686 239.025 151.686C239.146 151.686 239.255 151.76 239.35 151.907L240.026 153.012C239.627 153.385 239.146 153.679 238.583 153.896C238.02 154.104 237.439 154.208 236.841 154.208ZM249.253 148.072C248.187 148.107 247.277 148.193 246.523 148.332C245.778 148.462 245.167 148.635 244.69 148.852C244.222 149.069 243.88 149.324 243.663 149.619C243.455 149.914 243.351 150.243 243.351 150.607C243.351 150.954 243.408 151.253 243.52 151.504C243.633 151.755 243.785 151.963 243.975 152.128C244.175 152.284 244.404 152.401 244.664 152.479C244.933 152.548 245.219 152.583 245.522 152.583C245.93 152.583 246.302 152.544 246.64 152.466C246.978 152.379 247.295 152.258 247.589 152.102C247.893 151.946 248.179 151.76 248.447 151.543C248.725 151.326 248.993 151.079 249.253 150.802V148.072ZM241.778 142.69C242.506 141.988 243.291 141.464 244.131 141.117C244.972 140.77 245.904 140.597 246.926 140.597C247.663 140.597 248.317 140.718 248.889 140.961C249.461 141.204 249.942 141.542 250.332 141.975C250.722 142.408 251.017 142.933 251.216 143.548C251.416 144.163 251.515 144.839 251.515 145.576V154H250.488C250.263 154 250.09 153.965 249.968 153.896C249.847 153.818 249.752 153.671 249.682 153.454L249.422 152.206C249.076 152.527 248.738 152.813 248.408 153.064C248.079 153.307 247.732 153.515 247.368 153.688C247.004 153.853 246.614 153.978 246.198 154.065C245.791 154.16 245.336 154.208 244.833 154.208C244.322 154.208 243.841 154.139 243.39 154C242.94 153.853 242.545 153.636 242.207 153.35C241.878 153.064 241.614 152.704 241.414 152.271C241.224 151.829 241.128 151.309 241.128 150.711C241.128 150.191 241.271 149.693 241.557 149.216C241.843 148.731 242.307 148.302 242.948 147.929C243.59 147.556 244.426 147.253 245.457 147.019C246.489 146.776 247.754 146.638 249.253 146.603V145.576C249.253 144.553 249.032 143.782 248.59 143.262C248.148 142.733 247.503 142.469 246.653 142.469C246.081 142.469 245.6 142.543 245.21 142.69C244.829 142.829 244.495 142.989 244.209 143.171C243.932 143.344 243.689 143.505 243.481 143.652C243.282 143.791 243.083 143.86 242.883 143.86C242.727 143.86 242.593 143.821 242.48 143.743C242.368 143.656 242.272 143.552 242.194 143.431L241.778 142.69ZM257.224 142.742C257.51 142.421 257.813 142.131 258.134 141.871C258.455 141.611 258.793 141.39 259.148 141.208C259.512 141.017 259.893 140.874 260.292 140.779C260.699 140.675 261.137 140.623 261.605 140.623C262.324 140.623 262.957 140.744 263.503 140.987C264.058 141.221 264.517 141.559 264.881 142.001C265.254 142.434 265.535 142.959 265.726 143.574C265.917 144.189 266.012 144.87 266.012 145.615V154H263.685V145.615C263.685 144.618 263.455 143.847 262.996 143.301C262.545 142.746 261.856 142.469 260.929 142.469C260.244 142.469 259.603 142.634 259.005 142.963C258.416 143.292 257.87 143.739 257.367 144.302V154H255.04V140.831H256.431C256.76 140.831 256.964 140.991 257.042 141.312L257.224 142.742ZM273.403 154.208C272.363 154.208 271.562 153.918 270.998 153.337C270.444 152.756 270.166 151.92 270.166 150.828V142.768H268.58C268.442 142.768 268.325 142.729 268.229 142.651C268.134 142.564 268.086 142.434 268.086 142.261V141.338L270.244 141.065L270.777 136.996C270.803 136.866 270.86 136.762 270.946 136.684C271.042 136.597 271.163 136.554 271.31 136.554H272.48V141.091H276.289V142.768H272.48V150.672C272.48 151.227 272.615 151.638 272.883 151.907C273.152 152.176 273.499 152.31 273.923 152.31C274.166 152.31 274.374 152.28 274.547 152.219C274.729 152.15 274.885 152.076 275.015 151.998C275.145 151.92 275.254 151.851 275.34 151.79C275.436 151.721 275.518 151.686 275.587 151.686C275.709 151.686 275.817 151.76 275.912 151.907L276.588 153.012C276.19 153.385 275.709 153.679 275.145 153.896C274.582 154.104 274.001 154.208 273.403 154.208ZM287.723 134.851V154H285.409V134.851H287.723ZM297.027 140.623C297.989 140.623 298.855 140.783 299.627 141.104C300.398 141.425 301.057 141.88 301.603 142.469C302.149 143.058 302.565 143.773 302.851 144.614C303.145 145.446 303.293 146.378 303.293 147.409C303.293 148.449 303.145 149.385 302.851 150.217C302.565 151.049 302.149 151.76 301.603 152.349C301.057 152.938 300.398 153.393 299.627 153.714C298.855 154.026 297.989 154.182 297.027 154.182C296.056 154.182 295.181 154.026 294.401 153.714C293.629 153.393 292.971 152.938 292.425 152.349C291.879 151.76 291.458 151.049 291.164 150.217C290.878 149.385 290.735 148.449 290.735 147.409C290.735 146.378 290.878 145.446 291.164 144.614C291.458 143.773 291.879 143.058 292.425 142.469C292.971 141.88 293.629 141.425 294.401 141.104C295.181 140.783 296.056 140.623 297.027 140.623ZM297.027 152.375C298.327 152.375 299.297 151.942 299.939 151.075C300.58 150.2 300.901 148.982 300.901 147.422C300.901 145.853 300.58 144.631 299.939 143.756C299.297 142.881 298.327 142.443 297.027 142.443C296.368 142.443 295.792 142.556 295.298 142.781C294.812 143.006 294.405 143.331 294.076 143.756C293.755 144.181 293.512 144.705 293.348 145.329C293.192 145.944 293.114 146.642 293.114 147.422C293.114 148.982 293.434 150.2 294.076 151.075C294.726 151.942 295.709 152.375 297.027 152.375ZM313.365 148.072C312.299 148.107 311.389 148.193 310.635 148.332C309.889 148.462 309.278 148.635 308.802 148.852C308.334 149.069 307.991 149.324 307.775 149.619C307.567 149.914 307.463 150.243 307.463 150.607C307.463 150.954 307.519 151.253 307.632 151.504C307.744 151.755 307.896 151.963 308.087 152.128C308.286 152.284 308.516 152.401 308.776 152.479C309.044 152.548 309.33 152.583 309.634 152.583C310.041 152.583 310.414 152.544 310.752 152.466C311.09 152.379 311.406 152.258 311.701 152.102C312.004 151.946 312.29 151.76 312.559 151.543C312.836 151.326 313.105 151.079 313.365 150.802V148.072ZM305.89 142.69C306.618 141.988 307.402 141.464 308.243 141.117C309.083 140.77 310.015 140.597 311.038 140.597C311.774 140.597 312.429 140.718 313.001 140.961C313.573 141.204 314.054 141.542 314.444 141.975C314.834 142.408 315.128 142.933 315.328 143.548C315.527 144.163 315.627 144.839 315.627 145.576V154H314.6C314.374 154 314.201 153.965 314.08 153.896C313.958 153.818 313.863 153.671 313.794 153.454L313.534 152.206C313.187 152.527 312.849 152.813 312.52 153.064C312.19 153.307 311.844 153.515 311.48 153.688C311.116 153.853 310.726 153.978 310.31 154.065C309.902 154.16 309.447 154.208 308.945 154.208C308.433 154.208 307.952 154.139 307.502 154C307.051 153.853 306.657 153.636 306.319 153.35C305.989 153.064 305.725 152.704 305.526 152.271C305.335 151.829 305.24 151.309 305.24 150.711C305.24 150.191 305.383 149.693 305.669 149.216C305.955 148.731 306.418 148.302 307.06 147.929C307.701 147.556 308.537 147.253 309.569 147.019C310.6 146.776 311.865 146.638 313.365 146.603V145.576C313.365 144.553 313.144 143.782 312.702 143.262C312.26 142.733 311.614 142.469 310.765 142.469C310.193 142.469 309.712 142.543 309.322 142.69C308.94 142.829 308.607 142.989 308.321 143.171C308.043 143.344 307.801 143.505 307.593 143.652C307.393 143.791 307.194 143.86 306.995 143.86C306.839 143.86 306.704 143.821 306.592 143.743C306.479 143.656 306.384 143.552 306.306 143.431L305.89 142.69ZM321.335 142.742C321.621 142.421 321.925 142.131 322.245 141.871C322.566 141.611 322.904 141.39 323.259 141.208C323.623 141.017 324.005 140.874 324.403 140.779C324.811 140.675 325.248 140.623 325.716 140.623C326.436 140.623 327.068 140.744 327.614 140.987C328.169 141.221 328.628 141.559 328.992 142.001C329.365 142.434 329.647 142.959 329.837 143.574C330.028 144.189 330.123 144.87 330.123 145.615V154H327.796V145.615C327.796 144.618 327.567 143.847 327.107 143.301C326.657 142.746 325.968 142.469 325.04 142.469C324.356 142.469 323.714 142.634 323.116 142.963C322.527 143.292 321.981 143.739 321.478 144.302V154H319.151V140.831H320.542C320.872 140.831 321.075 140.991 321.153 141.312L321.335 142.742Z" fill="white"/>
<defs>
<filter id="filter0_i_3_12" x="11.6615" y="35.683" width="79.1456" height="95.317" filterUnits="userSpaceOnUse" color-interpolation-filters="sRGB">
<feFlood flood-opacity="0" result="BackgroundImageFix"/>
<feBlend mode="normal" in="SourceGraphic" in2="BackgroundImageFix" result="shape"/>
<feColorMatrix in="SourceAlpha" type="matrix" values="0 0 0 0 0 0 0 0 0 0 0 0 0 0 0 0 0 0 127 0" result="hardAlpha"/>
<feOffset dy="4"/>
<feGaussianBlur stdDeviation="2"/>
<feComposite in2="hardAlpha" operator="arithmetic" k2="-1" k3="1"/>
<feColorMatrix type="matrix" values="0 0 0 0 0 0 0 0 0 0 0 0 0 0 0 0 0 0 0.25 0"/>
<feBlend mode="normal" in2="shape" result="effect1_innerShadow_3_12"/>
</filter>
<filter id="filter1_i_3_12" x="157.712" y="35.288" width="67.776" height="95.712" filterUnits="userSpaceOnUse" color-interpolation-filters="sRGB">
<feFlood flood-opacity="0" result="BackgroundImageFix"/>
<feBlend mode="normal" in="SourceGraphic" in2="BackgroundImageFix" result="shape"/>
<feColorMatrix in="SourceAlpha" type="matrix" values="0 0 0 0 0 0 0 0 0 0 0 0 0 0 0 0 0 0 127 0" result="hardAlpha"/>
<feOffset dy="4"/>
<feGaussianBlur stdDeviation="2"/>
<feComposite in2="hardAlpha" operator="arithmetic" k2="-1" k3="1"/>
<feColorMatrix type="matrix" values="0 0 0 0 0 0 0 0 0 0 0 0 0 0 0 0 0 0 0.25 0"/>
<feBlend mode="normal" in2="shape" result="effect1_innerShadow_3_12"/>
</filter>
<filter id="filter2_i_3_12" x="95.712" y="36.288" width="74.304" height="95.712" filterUnits="userSpaceOnUse" color-interpolation-filters="sRGB">
<feFlood flood-opacity="0" result="BackgroundImageFix"/>
<feBlend mode="normal" in="SourceGraphic" in2="BackgroundImageFix" result="shape"/>
<feColorMatrix in="SourceAlpha" type="matrix" values="0 0 0 0 0 0 0 0 0 0 0 0 0 0 0 0 0 0 127 0" result="hardAlpha"/>
<feOffset dy="4"/>
<feGaussianBlur stdDeviation="2"/>
<feComposite in2="hardAlpha" operator="arithmetic" k2="-1" k3="1"/>
<feColorMatrix type="matrix" values="0 0 0 0 0 0 0 0 0 0 0 0 0 0 0 0 0 0 0.25 0"/>
<feBlend mode="normal" in2="shape" result="effect1_innerShadow_3_12"/>
</filter>
<filter id="filter3_i_3_12" x="330.712" y="36.288" width="12.416" height="95.712" filterUnits="userSpaceOnUse" color-interpolation-filters="sRGB">
<feFlood flood-opacity="0" result="BackgroundImageFix"/>
<feBlend mode="normal" in="SourceGraphic" in2="BackgroundImageFix" result="shape"/>
<feColorMatrix in="SourceAlpha" type="matrix" values="0 0 0 0 0 0 0 0 0 0 0 0 0 0 0 0 0 0 127 0" result="hardAlpha"/>
<feOffset dy="4"/>
<feGaussianBlur stdDeviation="2"/>
<feComposite in2="hardAlpha" operator="arithmetic" k2="-1" k3="1"/>
<feColorMatrix type="matrix" values="0 0 0 0 0 0 0 0 0 0 0 0 0 0 0 0 0 0 0.25 0"/>
<feBlend mode="normal" in2="shape" result="effect1_innerShadow_3_12"/>
</filter>
<filter id="filter4_i_3_12" x="229.712" y="35.288" width="12.416" height="95.712" filterUnits="userSpaceOnUse" color-interpolation-filters="sRGB">
<feFlood flood-opacity="0" result="BackgroundImageFix"/>
<feBlend mode="normal" in="SourceGraphic" in2="BackgroundImageFix" result="shape"/>
<feColorMatrix in="SourceAlpha" type="matrix" values="0 0 0 0 0 0 0 0 0 0 0 0 0 0 0 0 0 0 127 0" result="hardAlpha"/>
<feOffset dy="4"/>
<feGaussianBlur stdDeviation="2"/>
<feComposite in2="hardAlpha" operator="arithmetic" k2="-1" k3="1"/>
<feColorMatrix type="matrix" values="0 0 0 0 0 0 0 0 0 0 0 0 0 0 0 0 0 0 0.25 0"/>
<feBlend mode="normal" in2="shape" result="effect1_innerShadow_3_12"/>
</filter>
<filter id="filter5_i_3_12" x="248.92" y="35.288" width="71.808" height="95.712" filterUnits="userSpaceOnUse" color-interpolation-filters="sRGB">
<feFlood flood-opacity="0" result="BackgroundImageFix"/>
<feBlend mode="normal" in="SourceGraphic" in2="BackgroundImageFix" result="shape"/>
<feColorMatrix in="SourceAlpha" type="matrix" values="0 0 0 0 0 0 0 0 0 0 0 0 0 0 0 0 0 0 127 0" result="hardAlpha"/>
<feOffset dy="4"/>
<feGaussianBlur stdDeviation="2"/>
<feComposite in2="hardAlpha" operator="arithmetic" k2="-1" k3="1"/>
<feColorMatrix type="matrix" values="0 0 0 0 0 0 0 0 0 0 0 0 0 0 0 0 0 0 0.25 0"/>
<feBlend mode="normal" in2="shape" result="effect1_innerShadow_3_12"/>
</filter>
</defs>
</svg>
